<?xml version='1.0' encoding='UTF-8'?>
<!DOCTYPE svg PUBLIC "-//W3C//DTD SVG 1.1//EN" "http://www.w3.org/Graphics/SVG/1.1/DTD/svg11.dtd">
<!-- Generated by graphviz version 2.43.0 (0)
 -->
<!-- Title: %3 Pages: 1 -->
<svg xmlns="http://www.w3.org/2000/svg" xmlns:xlink="http://www.w3.org/1999/xlink" width="715pt" height="789pt" viewBox="0.00 0.00 715.00 789.00">
  <style>
    @import url("https://fonts.googleapis.com/css?family=Roboto:400,400i,700,700i");
    </style>
  <g id="graph0" class="graph" transform="scale(1 1) rotate(0) translate(4 785)">
    <title>%3</title>
    <polygon fill="#eeeeee" stroke="transparent" points="-4,4 -4,-785 711,-785 711,4 -4,4"/>
    <!-- User -->
    <g id="node1" class="table-hover">
      <title>User</title>
      <g id="a_node1">
        <a xlink:href="http://User_details.html" xlink:title="&lt;TABLE&gt;">
          <polygon fill="#3f51b5" stroke="transparent" points="116.5,-758 116.5,-777 345.5,-777 345.5,-758 116.5,-758"/>
          <polygon fill="none" stroke="black" points="116.5,-758 116.5,-777 345.5,-777 345.5,-758 116.5,-758"/>
          <text text-anchor="start" x="217" y="-764.4" font-family="Roboto" font-size="12.00" fill="white">User</text>
          <polygon fill="#bbdefb" stroke="transparent" points="116.5,-739 116.5,-758 195.5,-758 195.5,-739 116.5,-739"/>
          <polygon fill="none" stroke="black" points="116.5,-739 116.5,-758 195.5,-758 195.5,-739 116.5,-739"/>
          <text text-anchor="start" x="134.5" y="-745.4" font-family="Roboto" font-size="12.00">user_id</text>
          <polygon fill="#bbdefb" stroke="transparent" points="195.5,-739 195.5,-758 345.5,-758 345.5,-739 195.5,-739"/>
          <polygon fill="none" stroke="black" points="195.5,-739 195.5,-758 345.5,-758 345.5,-739 195.5,-739"/>
          <text text-anchor="start" x="230" y="-745.4" font-family="Roboto" font-size="12.00">INTEGER (PK)</text>
          <polygon fill="#bbdefb" stroke="transparent" points="116.5,-720 116.5,-739 195.5,-739 195.5,-720 116.5,-720"/>
          <polygon fill="none" stroke="black" points="116.5,-720 116.5,-739 195.5,-739 195.5,-720 116.5,-720"/>
          <text text-anchor="start" x="138.5" y="-726.4" font-family="Roboto" font-size="12.00">name</text>
          <polygon fill="#bbdefb" stroke="transparent" points="195.5,-720 195.5,-739 345.5,-739 345.5,-720 195.5,-720"/>
          <polygon fill="none" stroke="black" points="195.5,-720 195.5,-739 345.5,-739 345.5,-720 195.5,-720"/>
          <text text-anchor="start" x="223.5" y="-726.4" font-family="Roboto" font-size="12.00">VARCHAR(30) ()</text>
          <polygon fill="#bbdefb" stroke="transparent" points="116.5,-701 116.5,-720 195.5,-720 195.5,-701 116.5,-701"/>
          <polygon fill="none" stroke="black" points="116.5,-701 116.5,-720 195.5,-720 195.5,-701 116.5,-701"/>
          <text text-anchor="start" x="139" y="-707.4" font-family="Roboto" font-size="12.00">email</text>
          <polygon fill="#bbdefb" stroke="transparent" points="195.5,-701 195.5,-720 345.5,-720 345.5,-701 195.5,-701"/>
          <polygon fill="none" stroke="black" points="195.5,-701 195.5,-720 345.5,-720 345.5,-701 195.5,-701"/>
          <text text-anchor="start" x="202.5" y="-707.4" font-family="Roboto" font-size="12.00">VARCHAR(30) (Unique)</text>
          <polygon fill="#bbdefb" stroke="transparent" points="116.5,-682 116.5,-701 195.5,-701 195.5,-682 116.5,-682"/>
          <polygon fill="none" stroke="black" points="116.5,-682 116.5,-701 195.5,-701 195.5,-682 116.5,-682"/>
          <text text-anchor="start" x="125.5" y="-688.4" font-family="Roboto" font-size="12.00">username</text>
          <polygon fill="#bbdefb" stroke="transparent" points="195.5,-682 195.5,-701 345.5,-701 345.5,-682 195.5,-682"/>
          <polygon fill="none" stroke="black" points="195.5,-682 195.5,-701 345.5,-701 345.5,-682 195.5,-682"/>
          <text text-anchor="start" x="202.5" y="-688.4" font-family="Roboto" font-size="12.00">VARCHAR(30) (Unique)</text>
          <polygon fill="#bbdefb" stroke="transparent" points="116.5,-663 116.5,-682 195.5,-682 195.5,-663 116.5,-663"/>
          <polygon fill="none" stroke="black" points="116.5,-663 116.5,-682 195.5,-682 195.5,-663 116.5,-663"/>
          <text text-anchor="start" x="127.5" y="-669.4" font-family="Roboto" font-size="12.00">password</text>
          <polygon fill="#bbdefb" stroke="transparent" points="195.5,-663 195.5,-682 345.5,-682 345.5,-663 195.5,-663"/>
          <polygon fill="none" stroke="black" points="195.5,-663 195.5,-682 345.5,-682 345.5,-663 195.5,-663"/>
          <text text-anchor="start" x="235.5" y="-669.4" font-family="Roboto" font-size="12.00">VARCHAR ()</text>
          <polygon fill="#bbdefb" stroke="transparent" points="116.5,-644 116.5,-663 195.5,-663 195.5,-644 116.5,-644"/>
          <polygon fill="none" stroke="black" points="116.5,-644 116.5,-663 195.5,-663 195.5,-644 116.5,-644"/>
          <text text-anchor="start" x="119.5" y="-650.4" font-family="Roboto" font-size="12.00">fs_uniquifier</text>
          <polygon fill="#bbdefb" stroke="transparent" points="195.5,-644 195.5,-663 345.5,-663 345.5,-644 195.5,-644"/>
          <polygon fill="none" stroke="black" points="195.5,-644 195.5,-663 345.5,-663 345.5,-644 195.5,-644"/>
          <text text-anchor="start" x="198.5" y="-650.4" font-family="Roboto" font-size="12.00">VARCHAR(255) (Unique)</text>
          <polygon fill="#bbdefb" stroke="transparent" points="116.5,-625 116.5,-644 195.5,-644 195.5,-625 116.5,-625"/>
          <polygon fill="none" stroke="black" points="116.5,-625 116.5,-644 195.5,-644 195.5,-625 116.5,-625"/>
          <text text-anchor="start" x="137.5" y="-631.4" font-family="Roboto" font-size="12.00">active</text>
          <polygon fill="#bbdefb" stroke="transparent" points="195.5,-625 195.5,-644 345.5,-644 345.5,-625 195.5,-625"/>
          <polygon fill="none" stroke="black" points="195.5,-625 195.5,-644 345.5,-644 345.5,-625 195.5,-625"/>
          <text text-anchor="start" x="234" y="-631.4" font-family="Roboto" font-size="12.00">BOOLEAN ()</text>
        </a>
      </g>
    </g>
    <!-- Role -->
    <g id="node2" class="table-hover">
      <title>Role</title>
      <g id="a_node2">
        <a xlink:href="http://Role_details.html" xlink:title="&lt;TABLE&gt;">
          <polygon fill="#3f51b5" stroke="transparent" points="8.5,-541.5 8.5,-560.5 223.5,-560.5 223.5,-541.5 8.5,-541.5"/>
          <polygon fill="none" stroke="black" points="8.5,-541.5 8.5,-560.5 223.5,-560.5 223.5,-541.5 8.5,-541.5"/>
          <text text-anchor="start" x="103" y="-547.9" font-family="Roboto" font-size="12.00" fill="white">Role</text>
          <polygon fill="#bbdefb" stroke="transparent" points="8.5,-522.5 8.5,-541.5 81.5,-541.5 81.5,-522.5 8.5,-522.5"/>
          <polygon fill="none" stroke="black" points="8.5,-522.5 8.5,-541.5 81.5,-541.5 81.5,-522.5 8.5,-522.5"/>
          <text text-anchor="start" x="39.5" y="-528.9" font-family="Roboto" font-size="12.00">id</text>
          <polygon fill="#bbdefb" stroke="transparent" points="81.5,-522.5 81.5,-541.5 223.5,-541.5 223.5,-522.5 81.5,-522.5"/>
          <polygon fill="none" stroke="black" points="81.5,-522.5 81.5,-541.5 223.5,-541.5 223.5,-522.5 81.5,-522.5"/>
          <text text-anchor="start" x="112" y="-528.9" font-family="Roboto" font-size="12.00">INTEGER (PK)</text>
          <polygon fill="#bbdefb" stroke="transparent" points="8.5,-503.5 8.5,-522.5 81.5,-522.5 81.5,-503.5 8.5,-503.5"/>
          <polygon fill="none" stroke="black" points="8.5,-503.5 8.5,-522.5 81.5,-522.5 81.5,-503.5 8.5,-503.5"/>
          <text text-anchor="start" x="27.5" y="-509.9" font-family="Roboto" font-size="12.00">name</text>
          <polygon fill="#bbdefb" stroke="transparent" points="81.5,-503.5 81.5,-522.5 223.5,-522.5 223.5,-503.5 81.5,-503.5"/>
          <polygon fill="none" stroke="black" points="81.5,-503.5 81.5,-522.5 223.5,-522.5 223.5,-503.5 81.5,-503.5"/>
          <text text-anchor="start" x="84.5" y="-509.9" font-family="Roboto" font-size="12.00">VARCHAR(60) (Unique)</text>
          <polygon fill="#bbdefb" stroke="transparent" points="8.5,-484.5 8.5,-503.5 81.5,-503.5 81.5,-484.5 8.5,-484.5"/>
          <polygon fill="none" stroke="black" points="8.5,-484.5 8.5,-503.5 81.5,-503.5 81.5,-484.5 8.5,-484.5"/>
          <text text-anchor="start" x="11.5" y="-490.9" font-family="Roboto" font-size="12.00">description</text>
          <polygon fill="#bbdefb" stroke="transparent" points="81.5,-484.5 81.5,-503.5 223.5,-503.5 223.5,-484.5 81.5,-484.5"/>
          <polygon fill="none" stroke="black" points="81.5,-484.5 81.5,-503.5 223.5,-503.5 223.5,-484.5 81.5,-484.5"/>
          <text text-anchor="start" x="101.5" y="-490.9" font-family="Roboto" font-size="12.00">VARCHAR(255) ()</text>
        </a>
      </g>
    </g>
    <!-- User&#45;&gt;Role -->
    <g id="edge1" class="edge-hover edge-from-None edge-to-None">
      <title>User-&gt;Role</title>
      <g id="a_edge1">
        <a xlink:title="Relation between User and Role">
          <path fill="none" stroke="#1e88e5" stroke-dasharray="5,2" d="M170.43,-620.98C166.29,-614.96 162.27,-608.93 158.5,-603 152.56,-593.68 146.64,-583.47 141.17,-573.56"/>
          <polygon fill="#1e88e5" stroke="#1e88e5" points="144.14,-571.7 136.28,-564.59 137.99,-575.04 144.14,-571.7"/>
        </a>
      </g>
      <text text-anchor="middle" x="171" y="-595" font-family="Roboto" font-size="10.00">roles</text>
    </g>
    <!-- Playlists -->
    <g id="node3" class="table-hover">
      <title>Playlists</title>
      <g id="a_node3">
        <a xlink:href="http://Playlists_details.html" xlink:title="&lt;TABLE&gt;">
          <polygon fill="#3f51b5" stroke="transparent" points="257.5,-550.5 257.5,-569.5 415.5,-569.5 415.5,-550.5 257.5,-550.5"/>
          <polygon fill="none" stroke="black" points="257.5,-550.5 257.5,-569.5 415.5,-569.5 415.5,-550.5 257.5,-550.5"/>
          <text text-anchor="start" x="312.5" y="-556.9" font-family="Roboto" font-size="12.00" fill="white">Playlists</text>
          <polygon fill="#bbdefb" stroke="transparent" points="257.5,-531.5 257.5,-550.5 315.5,-550.5 315.5,-531.5 257.5,-531.5"/>
          <polygon fill="none" stroke="black" points="257.5,-531.5 257.5,-550.5 315.5,-550.5 315.5,-531.5 257.5,-531.5"/>
          <text text-anchor="start" x="272.5" y="-537.9" font-family="Roboto" font-size="12.00">pl_id</text>
          <polygon fill="#bbdefb" stroke="transparent" points="315.5,-531.5 315.5,-550.5 415.5,-550.5 415.5,-531.5 315.5,-531.5"/>
          <polygon fill="none" stroke="black" points="315.5,-531.5 315.5,-550.5 415.5,-550.5 415.5,-531.5 315.5,-531.5"/>
          <text text-anchor="start" x="325" y="-537.9" font-family="Roboto" font-size="12.00">INTEGER (PK)</text>
          <polygon fill="#bbdefb" stroke="transparent" points="257.5,-512.5 257.5,-531.5 315.5,-531.5 315.5,-512.5 257.5,-512.5"/>
          <polygon fill="none" stroke="black" points="257.5,-512.5 257.5,-531.5 315.5,-531.5 315.5,-512.5 257.5,-512.5"/>
          <text text-anchor="start" x="260.5" y="-518.9" font-family="Roboto" font-size="12.00">pl_name</text>
          <polygon fill="#bbdefb" stroke="transparent" points="315.5,-512.5 315.5,-531.5 415.5,-531.5 415.5,-512.5 315.5,-512.5"/>
          <polygon fill="none" stroke="black" points="315.5,-512.5 315.5,-531.5 415.5,-531.5 415.5,-512.5 315.5,-512.5"/>
          <text text-anchor="start" x="318.5" y="-518.9" font-family="Roboto" font-size="12.00">VARCHAR(50) ()</text>
          <polygon fill="#bbdefb" stroke="transparent" points="257.5,-493.5 257.5,-512.5 315.5,-512.5 315.5,-493.5 257.5,-493.5"/>
          <polygon fill="none" stroke="black" points="257.5,-493.5 257.5,-512.5 315.5,-512.5 315.5,-493.5 257.5,-493.5"/>
          <text text-anchor="start" x="264.5" y="-499.9" font-family="Roboto" font-size="12.00">pl_year</text>
          <polygon fill="#bbdefb" stroke="transparent" points="315.5,-493.5 315.5,-512.5 415.5,-512.5 415.5,-493.5 315.5,-493.5"/>
          <polygon fill="none" stroke="black" points="315.5,-493.5 315.5,-512.5 415.5,-512.5 415.5,-493.5 315.5,-493.5"/>
          <text text-anchor="start" x="332.5" y="-499.9" font-family="Roboto" font-size="12.00">INTEGER ()</text>
          <polygon fill="#bbdefb" stroke="transparent" points="257.5,-474.5 257.5,-493.5 315.5,-493.5 315.5,-474.5 257.5,-474.5"/>
          <polygon fill="none" stroke="black" points="257.5,-474.5 257.5,-493.5 315.5,-493.5 315.5,-474.5 257.5,-474.5"/>
          <text text-anchor="start" x="277" y="-480.9" font-family="Roboto" font-size="12.00">uid</text>
          <polygon fill="#bbdefb" stroke="transparent" points="315.5,-474.5 315.5,-493.5 415.5,-493.5 415.5,-474.5 315.5,-474.5"/>
          <polygon fill="none" stroke="black" points="315.5,-474.5 315.5,-493.5 415.5,-493.5 415.5,-474.5 315.5,-474.5"/>
          <text text-anchor="start" x="332.5" y="-480.9" font-family="Roboto" font-size="12.00">INTEGER ()</text>
        </a>
      </g>
    </g>
    <!-- User&#45;&gt;Playlists -->
    <g id="edge2" class="edge-hover edge-from-None edge-to-None">
      <title>User-&gt;Playlists</title>
      <g id="a_edge2">
        <a xlink:title="Relation between User and Playlists">
          <path fill="none" stroke="#1e88e5" stroke-dasharray="5,2" d="M253.73,-620.81C258,-610.78 262.9,-600.93 268.5,-592 270.59,-588.66 272.88,-585.36 275.29,-582.11"/>
          <polygon fill="#1e88e5" stroke="#1e88e5" points="278.11,-584.19 281.56,-574.17 272.62,-579.85 278.11,-584.19"/>
        </a>
      </g>
      <text text-anchor="middle" x="289.5" y="-595" font-family="Roboto" font-size="10.00">playlists</text>
    </g>
    <!-- Role&#45;&gt;User -->
    <g id="edge9" class="edge-hover edge-from-None edge-to-None">
      <title>Role-&gt;User</title>
      <g id="a_edge9">
        <a xlink:title="Relation between Role and User">
          <path fill="none" stroke="#1e88e5" stroke-dasharray="5,2" d="M161.31,-564.81C169.31,-573.32 177.1,-582.57 183.5,-592 187.78,-598.31 191.81,-605.06 195.57,-612.01"/>
          <polygon fill="#1e88e5" stroke="#1e88e5" points="192.47,-613.63 200.19,-620.89 198.68,-610.4 192.47,-613.63"/>
        </a>
      </g>
      <text text-anchor="middle" x="204.5" y="-595" font-family="Roboto" font-size="10.00">Users</text>
    </g>
    <!-- Playlists&#45;&gt;User -->
    <g id="edge7" class="edge-hover edge-from-None edge-to-None">
      <title>Playlists-&gt;User</title>
      <g id="a_edge7">
        <a xlink:title="Relation between Playlists and User">
          <path fill="none" stroke="#1e88e5" stroke-dasharray="5,2" d="M323.03,-574.31C319.56,-584.11 315.4,-594.09 310.5,-603 308.79,-606.11 306.98,-609.21 305.08,-612.3"/>
          <polygon fill="#1e88e5" stroke="#1e88e5" points="301.98,-610.64 299.52,-620.94 307.87,-614.43 301.98,-610.64"/>
        </a>
      </g>
      <text text-anchor="middle" x="328" y="-595" font-family="Roboto" font-size="10.00">User</text>
    </g>
    <!-- Songs -->
    <g id="node4" class="table-hover">
      <title>Songs</title>
      <g id="a_node4">
        <a xlink:href="http://Songs_details.html" xlink:title="&lt;TABLE&gt;">
          <polygon fill="#3f51b5" stroke="transparent" points="210.5,-401 210.5,-420 463.5,-420 463.5,-401 210.5,-401"/>
          <polygon fill="none" stroke="black" points="210.5,-401 210.5,-420 463.5,-420 463.5,-401 210.5,-401"/>
          <text text-anchor="start" x="318.5" y="-407.4" font-family="Roboto" font-size="12.00" fill="white">Songs</text>
          <polygon fill="#bbdefb" stroke="transparent" points="210.5,-382 210.5,-401 313.5,-401 313.5,-382 210.5,-382"/>
          <polygon fill="none" stroke="black" points="210.5,-382 210.5,-401 313.5,-401 313.5,-382 210.5,-382"/>
          <text text-anchor="start" x="239" y="-388.4" font-family="Roboto" font-size="12.00">song_id</text>
          <polygon fill="#bbdefb" stroke="transparent" points="313.5,-382 313.5,-401 463.5,-401 463.5,-382 313.5,-382"/>
          <polygon fill="none" stroke="black" points="313.5,-382 313.5,-401 463.5,-401 463.5,-382 313.5,-382"/>
          <text text-anchor="start" x="348" y="-388.4" font-family="Roboto" font-size="12.00">INTEGER (PK)</text>
          <polygon fill="#bbdefb" stroke="transparent" points="210.5,-363 210.5,-382 313.5,-382 313.5,-363 210.5,-363"/>
          <polygon fill="none" stroke="black" points="210.5,-363 210.5,-382 313.5,-382 313.5,-363 210.5,-363"/>
          <text text-anchor="start" x="234.5" y="-369.4" font-family="Roboto" font-size="12.00">album_id</text>
          <polygon fill="#bbdefb" stroke="transparent" points="313.5,-363 313.5,-382 463.5,-382 463.5,-363 313.5,-363"/>
          <polygon fill="none" stroke="black" points="313.5,-363 313.5,-382 463.5,-382 463.5,-363 313.5,-363"/>
          <text text-anchor="start" x="355.5" y="-369.4" font-family="Roboto" font-size="12.00">INTEGER ()</text>
          <polygon fill="#bbdefb" stroke="transparent" points="210.5,-344 210.5,-363 313.5,-363 313.5,-344 210.5,-344"/>
          <polygon fill="none" stroke="black" points="210.5,-344 210.5,-363 313.5,-363 313.5,-344 210.5,-344"/>
          <text text-anchor="start" x="227" y="-350.4" font-family="Roboto" font-size="12.00">song_name</text>
          <polygon fill="#bbdefb" stroke="transparent" points="313.5,-344 313.5,-363 463.5,-363 463.5,-344 313.5,-344"/>
          <polygon fill="none" stroke="black" points="313.5,-344 313.5,-363 463.5,-363 463.5,-344 313.5,-344"/>
          <text text-anchor="start" x="341.5" y="-350.4" font-family="Roboto" font-size="12.00">VARCHAR(30) ()</text>
          <polygon fill="#bbdefb" stroke="transparent" points="210.5,-325 210.5,-344 313.5,-344 313.5,-325 210.5,-325"/>
          <polygon fill="none" stroke="black" points="210.5,-325 210.5,-344 313.5,-344 313.5,-325 210.5,-325"/>
          <text text-anchor="start" x="231" y="-331.4" font-family="Roboto" font-size="12.00">song_year</text>
          <polygon fill="#bbdefb" stroke="transparent" points="313.5,-325 313.5,-344 463.5,-344 463.5,-325 313.5,-325"/>
          <polygon fill="none" stroke="black" points="313.5,-325 313.5,-344 463.5,-344 463.5,-325 313.5,-325"/>
          <text text-anchor="start" x="355.5" y="-331.4" font-family="Roboto" font-size="12.00">INTEGER ()</text>
          <polygon fill="#bbdefb" stroke="transparent" points="210.5,-306 210.5,-325 313.5,-325 313.5,-306 210.5,-306"/>
          <polygon fill="none" stroke="black" points="210.5,-306 210.5,-325 313.5,-325 313.5,-306 210.5,-306"/>
          <text text-anchor="start" x="241" y="-312.4" font-family="Roboto" font-size="12.00">ratings</text>
          <polygon fill="#bbdefb" stroke="transparent" points="313.5,-306 313.5,-325 463.5,-325 463.5,-306 313.5,-306"/>
          <polygon fill="none" stroke="black" points="313.5,-306 313.5,-325 463.5,-325 463.5,-306 313.5,-306"/>
          <text text-anchor="start" x="355.5" y="-312.4" font-family="Roboto" font-size="12.00">INTEGER ()</text>
          <polygon fill="#bbdefb" stroke="transparent" points="210.5,-287 210.5,-306 313.5,-306 313.5,-287 210.5,-287"/>
          <polygon fill="none" stroke="black" points="210.5,-287 210.5,-306 313.5,-306 313.5,-287 210.5,-287"/>
          <text text-anchor="start" x="213.5" y="-293.4" font-family="Roboto" font-size="12.00">user_rate_count</text>
          <polygon fill="#bbdefb" stroke="transparent" points="313.5,-287 313.5,-306 463.5,-306 463.5,-287 313.5,-287"/>
          <polygon fill="none" stroke="black" points="313.5,-287 313.5,-306 463.5,-306 463.5,-287 313.5,-287"/>
          <text text-anchor="start" x="355.5" y="-293.4" font-family="Roboto" font-size="12.00">INTEGER ()</text>
          <polygon fill="#bbdefb" stroke="transparent" points="210.5,-268 210.5,-287 313.5,-287 313.5,-268 210.5,-268"/>
          <polygon fill="none" stroke="black" points="210.5,-268 210.5,-287 313.5,-287 313.5,-268 210.5,-268"/>
          <text text-anchor="start" x="246.5" y="-274.4" font-family="Roboto" font-size="12.00">lyrics</text>
          <polygon fill="#bbdefb" stroke="transparent" points="313.5,-268 313.5,-287 463.5,-287 463.5,-268 313.5,-268"/>
          <polygon fill="none" stroke="black" points="313.5,-268 313.5,-287 463.5,-287 463.5,-268 313.5,-268"/>
          <text text-anchor="start" x="334" y="-274.4" font-family="Roboto" font-size="12.00">VARCHAR(5000) ()</text>
          <polygon fill="#bbdefb" stroke="transparent" points="210.5,-249 210.5,-268 313.5,-268 313.5,-249 210.5,-249"/>
          <polygon fill="none" stroke="black" points="210.5,-249 210.5,-268 313.5,-268 313.5,-249 210.5,-249"/>
          <text text-anchor="start" x="240" y="-255.4" font-family="Roboto" font-size="12.00">creator</text>
          <polygon fill="#bbdefb" stroke="transparent" points="313.5,-249 313.5,-268 463.5,-268 463.5,-249 313.5,-249"/>
          <polygon fill="none" stroke="black" points="313.5,-249 313.5,-268 463.5,-268 463.5,-249 313.5,-249"/>
          <text text-anchor="start" x="355.5" y="-255.4" font-family="Roboto" font-size="12.00">INTEGER ()</text>
          <polygon fill="#bbdefb" stroke="transparent" points="210.5,-230 210.5,-249 313.5,-249 313.5,-230 210.5,-230"/>
          <polygon fill="none" stroke="black" points="210.5,-230 210.5,-249 313.5,-249 313.5,-230 210.5,-230"/>
          <text text-anchor="start" x="244.5" y="-236.4" font-family="Roboto" font-size="12.00">genre</text>
          <polygon fill="#bbdefb" stroke="transparent" points="313.5,-230 313.5,-249 463.5,-249 463.5,-230 313.5,-230"/>
          <polygon fill="none" stroke="black" points="313.5,-230 313.5,-249 463.5,-249 463.5,-230 313.5,-230"/>
          <text text-anchor="start" x="341.5" y="-236.4" font-family="Roboto" font-size="12.00">VARCHAR(30) ()</text>
          <polygon fill="#bbdefb" stroke="transparent" points="210.5,-211 210.5,-230 313.5,-230 313.5,-211 210.5,-211"/>
          <polygon fill="none" stroke="black" points="210.5,-211 210.5,-230 313.5,-230 313.5,-211 210.5,-211"/>
          <text text-anchor="start" x="236" y="-217.4" font-family="Roboto" font-size="12.00">song_loc</text>
          <polygon fill="#bbdefb" stroke="transparent" points="313.5,-211 313.5,-230 463.5,-230 463.5,-211 313.5,-211"/>
          <polygon fill="none" stroke="black" points="313.5,-211 313.5,-230 463.5,-230 463.5,-211 313.5,-211"/>
          <text text-anchor="start" x="316.5" y="-217.4" font-family="Roboto" font-size="12.00">VARCHAR(100) (Unique)</text>
          <polygon fill="#bbdefb" stroke="transparent" points="210.5,-192 210.5,-211 313.5,-211 313.5,-192 210.5,-192"/>
          <polygon fill="none" stroke="black" points="210.5,-192 210.5,-211 313.5,-211 313.5,-192 210.5,-192"/>
          <text text-anchor="start" x="239" y="-198.4" font-family="Roboto" font-size="12.00">flagged</text>
          <polygon fill="#bbdefb" stroke="transparent" points="313.5,-192 313.5,-211 463.5,-211 463.5,-192 313.5,-192"/>
          <polygon fill="none" stroke="black" points="313.5,-192 313.5,-211 463.5,-211 463.5,-192 313.5,-192"/>
          <text text-anchor="start" x="352" y="-198.4" font-family="Roboto" font-size="12.00">BOOLEAN ()</text>
        </a>
      </g>
    </g>
    <!-- Playlists&#45;&gt;Songs -->
    <g id="edge8" class="edge-hover edge-from-None edge-to-None">
      <title>Playlists-&gt;Songs</title>
      <g id="a_edge8">
        <a xlink:title="Relation between Playlists and Songs">
          <path fill="none" stroke="#1e88e5" stroke-dasharray="5,2" d="M304.73,-470.68C302.2,-464.88 300.03,-458.92 298.5,-453 296.91,-446.84 295.96,-440.54 295.54,-434.18"/>
          <polygon fill="#1e88e5" stroke="#1e88e5" points="299.04,-434.05 295.32,-424.13 292.04,-434.21 299.04,-434.05"/>
        </a>
      </g>
      <text text-anchor="middle" x="322" y="-445" font-family="Roboto" font-size="10.00">song_inpl</text>
    </g>
    <!-- Songs&#45;&gt;Playlists -->
    <g id="edge3" class="edge-hover edge-from-None edge-to-None">
      <title>Songs-&gt;Playlists</title>
      <g id="a_edge3">
        <a xlink:title="Relation between Songs and Playlists">
          <path fill="none" stroke="#1e88e5" stroke-dasharray="5,2" d="M350.7,-424.15C350.74,-433.91 350.38,-443.63 349.5,-453 349.26,-455.53 348.98,-458.11 348.65,-460.71"/>
          <polygon fill="#1e88e5" stroke="#1e88e5" points="345.16,-460.39 347.22,-470.78 352.09,-461.37 345.16,-460.39"/>
        </a>
      </g>
      <text text-anchor="middle" x="361.5" y="-445" font-family="Roboto" font-size="10.00">plals</text>
    </g>
    <!-- Albums -->
    <g id="node5" class="table-hover">
      <title>Albums</title>
      <g id="a_node5">
        <a xlink:href="http://Albums_details.html" xlink:title="&lt;TABLE&gt;">
          <polygon fill="#3f51b5" stroke="transparent" points="240.5,-117.5 240.5,-136.5 433.5,-136.5 433.5,-117.5 240.5,-117.5"/>
          <polygon fill="none" stroke="black" points="240.5,-117.5 240.5,-136.5 433.5,-136.5 433.5,-117.5 240.5,-117.5"/>
          <text text-anchor="start" x="314.5" y="-123.9" font-family="Roboto" font-size="12.00" fill="white">Albums</text>
          <polygon fill="#bbdefb" stroke="transparent" points="240.5,-98.5 240.5,-117.5 325.5,-117.5 325.5,-98.5 240.5,-98.5"/>
          <polygon fill="none" stroke="black" points="240.5,-98.5 240.5,-117.5 325.5,-117.5 325.5,-98.5 240.5,-98.5"/>
          <text text-anchor="start" x="255.5" y="-104.9" font-family="Roboto" font-size="12.00">album_id</text>
          <polygon fill="#bbdefb" stroke="transparent" points="325.5,-98.5 325.5,-117.5 433.5,-117.5 433.5,-98.5 325.5,-98.5"/>
          <polygon fill="none" stroke="black" points="325.5,-98.5 325.5,-117.5 433.5,-117.5 433.5,-98.5 325.5,-98.5"/>
          <text text-anchor="start" x="339" y="-104.9" font-family="Roboto" font-size="12.00">INTEGER (PK)</text>
          <polygon fill="#bbdefb" stroke="transparent" points="240.5,-79.5 240.5,-98.5 325.5,-98.5 325.5,-79.5 240.5,-79.5"/>
          <polygon fill="none" stroke="black" points="240.5,-79.5 240.5,-98.5 325.5,-98.5 325.5,-79.5 240.5,-79.5"/>
          <text text-anchor="start" x="243.5" y="-85.9" font-family="Roboto" font-size="12.00">album_name</text>
          <polygon fill="#bbdefb" stroke="transparent" points="325.5,-79.5 325.5,-98.5 433.5,-98.5 433.5,-79.5 325.5,-79.5"/>
          <polygon fill="none" stroke="black" points="325.5,-79.5 325.5,-98.5 433.5,-98.5 433.5,-79.5 325.5,-79.5"/>
          <text text-anchor="start" x="332.5" y="-85.9" font-family="Roboto" font-size="12.00">VARCHAR(50) ()</text>
          <polygon fill="#bbdefb" stroke="transparent" points="240.5,-60.5 240.5,-79.5 325.5,-79.5 325.5,-60.5 240.5,-60.5"/>
          <polygon fill="none" stroke="black" points="240.5,-60.5 240.5,-79.5 325.5,-79.5 325.5,-60.5 240.5,-60.5"/>
          <text text-anchor="start" x="252.5" y="-66.9" font-family="Roboto" font-size="12.00">album_art</text>
          <polygon fill="#bbdefb" stroke="transparent" points="325.5,-60.5 325.5,-79.5 433.5,-79.5 433.5,-60.5 325.5,-60.5"/>
          <polygon fill="none" stroke="black" points="325.5,-60.5 325.5,-79.5 433.5,-79.5 433.5,-60.5 325.5,-60.5"/>
          <text text-anchor="start" x="328.5" y="-66.9" font-family="Roboto" font-size="12.00">VARCHAR(200) ()</text>
          <polygon fill="#bbdefb" stroke="transparent" points="240.5,-41.5 240.5,-60.5 325.5,-60.5 325.5,-41.5 240.5,-41.5"/>
          <polygon fill="none" stroke="black" points="240.5,-41.5 240.5,-60.5 325.5,-60.5 325.5,-41.5 240.5,-41.5"/>
          <text text-anchor="start" x="247.5" y="-47.9" font-family="Roboto" font-size="12.00">album_year</text>
          <polygon fill="#bbdefb" stroke="transparent" points="325.5,-41.5 325.5,-60.5 433.5,-60.5 433.5,-41.5 325.5,-41.5"/>
          <polygon fill="none" stroke="black" points="325.5,-41.5 325.5,-60.5 433.5,-60.5 433.5,-41.5 325.5,-41.5"/>
          <text text-anchor="start" x="346.5" y="-47.9" font-family="Roboto" font-size="12.00">INTEGER ()</text>
          <polygon fill="#bbdefb" stroke="transparent" points="240.5,-22.5 240.5,-41.5 325.5,-41.5 325.5,-22.5 240.5,-22.5"/>
          <polygon fill="none" stroke="black" points="240.5,-22.5 240.5,-41.5 325.5,-41.5 325.5,-22.5 240.5,-22.5"/>
          <text text-anchor="start" x="261" y="-28.9" font-family="Roboto" font-size="12.00">creator</text>
          <polygon fill="#bbdefb" stroke="transparent" points="325.5,-22.5 325.5,-41.5 433.5,-41.5 433.5,-22.5 325.5,-22.5"/>
          <polygon fill="none" stroke="black" points="325.5,-22.5 325.5,-41.5 433.5,-41.5 433.5,-22.5 325.5,-22.5"/>
          <text text-anchor="start" x="346.5" y="-28.9" font-family="Roboto" font-size="12.00">INTEGER ()</text>
          <polygon fill="#bbdefb" stroke="transparent" points="240.5,-3.5 240.5,-22.5 325.5,-22.5 325.5,-3.5 240.5,-3.5"/>
          <polygon fill="none" stroke="black" points="240.5,-3.5 240.5,-22.5 325.5,-22.5 325.5,-3.5 240.5,-3.5"/>
          <text text-anchor="start" x="265.5" y="-9.9" font-family="Roboto" font-size="12.00">genre</text>
          <polygon fill="#bbdefb" stroke="transparent" points="325.5,-3.5 325.5,-22.5 433.5,-22.5 433.5,-3.5 325.5,-3.5"/>
          <polygon fill="none" stroke="black" points="325.5,-3.5 325.5,-22.5 433.5,-22.5 433.5,-3.5 325.5,-3.5"/>
          <text text-anchor="start" x="332.5" y="-9.9" font-family="Roboto" font-size="12.00">VARCHAR(30) ()</text>
        </a>
      </g>
    </g>
    <!-- Songs&#45;&gt;Albums -->
    <g id="edge4" class="edge-hover edge-from-None edge-to-None">
      <title>Songs-&gt;Albums</title>
      <g id="a_edge4">
        <a xlink:title="Relation between Songs and Albums">
          <path fill="none" stroke="#1e88e5" stroke-dasharray="5,2" d="M274.3,-187.7C273.72,-178.06 274.62,-168.41 277.5,-159 278.39,-156.07 279.42,-153.15 280.57,-150.26"/>
          <polygon fill="#1e88e5" stroke="#1e88e5" points="283.78,-151.65 284.58,-141.08 277.36,-148.85 283.78,-151.65"/>
        </a>
      </g>
      <text text-anchor="middle" x="296" y="-162" font-family="Roboto" font-size="10.00">Albums</text>
    </g>
    <!-- Albums&#45;&gt;Songs -->
    <g id="edge5" class="edge-hover edge-from-None edge-to-None">
      <title>Albums-&gt;Songs</title>
      <g id="a_edge5">
        <a xlink:title="Relation between Albums and Songs">
          <path fill="none" stroke="#1e88e5" stroke-dasharray="5,2" d="M336.5,-141.01C336.5,-152.7 336.5,-165.15 336.5,-177.77"/>
          <polygon fill="#1e88e5" stroke="#1e88e5" points="333,-177.91 336.5,-187.91 340,-177.91 333,-177.91"/>
        </a>
      </g>
      <text text-anchor="middle" x="351" y="-162" font-family="Roboto" font-size="10.00">songs</text>
    </g>
    <!-- Albums&#45;&gt;Songs -->
    <g id="edge6" class="edge-hover edge-from-None edge-to-None">
      <title>Albums-&gt;Songs</title>
      <g id="a_edge6">
        <a xlink:title="Relation between Albums and Songs">
          <path fill="none" stroke="#1e88e5" stroke-dasharray="5,2" d="M362.66,-141.18C364.2,-147.14 365.52,-153.14 366.5,-159 367.49,-164.97 368.06,-171.06 368.26,-177.22"/>
          <polygon fill="#1e88e5" stroke="#1e88e5" points="364.76,-177.61 368.27,-187.61 371.76,-177.6 364.76,-177.61"/>
        </a>
      </g>
      <text text-anchor="middle" x="382" y="-162" font-family="Roboto" font-size="10.00">songs</text>
    </g>
    <!-- Roles_Users -->
    <g id="node6" class="table-hover">
      <title>Roles_Users</title>
      <g id="a_node6">
        <a xlink:href="http://Roles_Users_details.html" xlink:title="&lt;TABLE&gt;">
          <polygon fill="#3f51b5" stroke="transparent" points="379.5,-720 379.5,-739 515.5,-739 515.5,-720 379.5,-720"/>
          <polygon fill="none" stroke="black" points="379.5,-720 379.5,-739 515.5,-739 515.5,-720 379.5,-720"/>
          <text text-anchor="start" x="411.5" y="-726.4" font-family="Roboto" font-size="12.00" fill="white">Roles_Users</text>
          <polygon fill="#bbdefb" stroke="transparent" points="379.5,-701 379.5,-720 428.5,-720 428.5,-701 379.5,-701"/>
          <polygon fill="none" stroke="black" points="379.5,-701 379.5,-720 428.5,-720 428.5,-701 379.5,-701"/>
          <text text-anchor="start" x="398.5" y="-707.4" font-family="Roboto" font-size="12.00">id</text>
          <polygon fill="#bbdefb" stroke="transparent" points="428.5,-701 428.5,-720 515.5,-720 515.5,-701 428.5,-701"/>
          <polygon fill="none" stroke="black" points="428.5,-701 428.5,-720 515.5,-720 515.5,-701 428.5,-701"/>
          <text text-anchor="start" x="431.5" y="-707.4" font-family="Roboto" font-size="12.00">INTEGER (PK)</text>
          <polygon fill="#bbdefb" stroke="transparent" points="379.5,-682 379.5,-701 428.5,-701 428.5,-682 379.5,-682"/>
          <polygon fill="none" stroke="black" points="379.5,-682 379.5,-701 428.5,-701 428.5,-682 379.5,-682"/>
          <text text-anchor="start" x="382.5" y="-688.4" font-family="Roboto" font-size="12.00">user_id</text>
          <polygon fill="#bbdefb" stroke="transparent" points="428.5,-682 428.5,-701 515.5,-701 515.5,-682 428.5,-682"/>
          <polygon fill="none" stroke="black" points="428.5,-682 428.5,-701 515.5,-701 515.5,-682 428.5,-682"/>
          <text text-anchor="start" x="439" y="-688.4" font-family="Roboto" font-size="12.00">INTEGER ()</text>
          <polygon fill="#bbdefb" stroke="transparent" points="379.5,-663 379.5,-682 428.5,-682 428.5,-663 379.5,-663"/>
          <polygon fill="none" stroke="black" points="379.5,-663 379.5,-682 428.5,-682 428.5,-663 379.5,-663"/>
          <text text-anchor="start" x="384" y="-669.4" font-family="Roboto" font-size="12.00">role_id</text>
          <polygon fill="#bbdefb" stroke="transparent" points="428.5,-663 428.5,-682 515.5,-682 515.5,-663 428.5,-663"/>
          <polygon fill="none" stroke="black" points="428.5,-663 428.5,-682 515.5,-682 515.5,-663 428.5,-663"/>
          <text text-anchor="start" x="439" y="-669.4" font-family="Roboto" font-size="12.00">INTEGER ()</text>
        </a>
      </g>
    </g>
    <!-- User_track -->
    <g id="node7" class="table-hover">
      <title>User_track</title>
      <g id="a_node7">
        <a xlink:href="http://User_track_details.html" xlink:title="&lt;TABLE&gt;">
          <polygon fill="#3f51b5" stroke="transparent" points="550.5,-720 550.5,-739 699.5,-739 699.5,-720 550.5,-720"/>
          <polygon fill="none" stroke="black" points="550.5,-720 550.5,-739 699.5,-739 699.5,-720 550.5,-720"/>
          <text text-anchor="start" x="592.5" y="-726.4" font-family="Roboto" font-size="12.00" fill="white">User_track</text>
          <polygon fill="#bbdefb" stroke="transparent" points="550.5,-701 550.5,-720 612.5,-720 612.5,-701 550.5,-701"/>
          <polygon fill="none" stroke="black" points="550.5,-701 550.5,-720 612.5,-720 612.5,-701 550.5,-701"/>
          <text text-anchor="start" x="576" y="-707.4" font-family="Roboto" font-size="12.00">id</text>
          <polygon fill="#bbdefb" stroke="transparent" points="612.5,-701 612.5,-720 699.5,-720 699.5,-701 612.5,-701"/>
          <polygon fill="none" stroke="black" points="612.5,-701 612.5,-720 699.5,-720 699.5,-701 612.5,-701"/>
          <text text-anchor="start" x="615.5" y="-707.4" font-family="Roboto" font-size="12.00">INTEGER (PK)</text>
          <polygon fill="#bbdefb" stroke="transparent" points="550.5,-682 550.5,-701 612.5,-701 612.5,-682 550.5,-682"/>
          <polygon fill="none" stroke="black" points="550.5,-682 550.5,-701 612.5,-701 612.5,-682 550.5,-682"/>
          <text text-anchor="start" x="560" y="-688.4" font-family="Roboto" font-size="12.00">user_id</text>
          <polygon fill="#bbdefb" stroke="transparent" points="612.5,-682 612.5,-701 699.5,-701 699.5,-682 612.5,-682"/>
          <polygon fill="none" stroke="black" points="612.5,-682 612.5,-701 699.5,-701 699.5,-682 612.5,-682"/>
          <text text-anchor="start" x="623" y="-688.4" font-family="Roboto" font-size="12.00">INTEGER ()</text>
          <polygon fill="#bbdefb" stroke="transparent" points="550.5,-663 550.5,-682 612.5,-682 612.5,-663 550.5,-663"/>
          <polygon fill="none" stroke="black" points="550.5,-663 550.5,-682 612.5,-682 612.5,-663 550.5,-663"/>
          <text text-anchor="start" x="553.5" y="-669.4" font-family="Roboto" font-size="12.00">last_login</text>
          <polygon fill="#bbdefb" stroke="transparent" points="612.5,-663 612.5,-682 699.5,-682 699.5,-663 612.5,-663"/>
          <polygon fill="none" stroke="black" points="612.5,-663 612.5,-682 699.5,-682 699.5,-663 612.5,-663"/>
          <text text-anchor="start" x="619" y="-669.4" font-family="Roboto" font-size="12.00">DATETIME ()</text>
        </a>
      </g>
    </g>
  </g>
</svg>
